<svg id="android-logo" xmlns="http://www.w3.org/2000/svg" width="22.752" height="26.89" viewBox="0 0 22.752 26.89">
  <g id="Group_8" data-name="Group 8" transform="translate(0 0)">
    <path id="Path_159" data-name="Path 159" d="M44.208,179.141a1.605,1.605,0,0,0-1.18.485,1.587,1.587,0,0,0-.485,1.163v6.949a1.655,1.655,0,0,0,1.664,1.665,1.581,1.581,0,0,0,1.172-.485,1.62,1.62,0,0,0,.477-1.18v-6.949a1.655,1.655,0,0,0-1.648-1.648Z" transform="translate(-42.544 -170.431)" fill="#6cc57c"/>
    <path id="Path_160" data-name="Path 160" d="M133.8,2.472,134.948.356a.213.213,0,0,0-.081-.323.224.224,0,0,0-.323.1l-1.163,2.133a8.105,8.105,0,0,0-6.5,0L125.721.129a.224.224,0,0,0-.323-.1.212.212,0,0,0-.081.323l1.147,2.117a7.086,7.086,0,0,0-2.779,2.481,6.265,6.265,0,0,0-1.034,3.483H137.6a6.267,6.267,0,0,0-1.034-3.483A7.115,7.115,0,0,0,133.8,2.472Zm-6.633,3.079a.606.606,0,0,1-.445.186.578.578,0,0,1-.436-.186.644.644,0,0,1,0-.888.58.58,0,0,1,.436-.186.628.628,0,0,1,.445,1.074Zm6.811,0a.58.58,0,0,1-.436.186.63.63,0,0,1,0-1.26.581.581,0,0,1,.436.186.644.644,0,0,1,0,.888Z" transform="translate(-118.756 0)" fill="#6cc57c"/>
    <path id="Path_161" data-name="Path 161" d="M123.971,196.212a1.765,1.765,0,0,0,1.777,1.777h1.2l.016,3.669a1.606,1.606,0,0,0,.485,1.18,1.587,1.587,0,0,0,1.163.485,1.655,1.655,0,0,0,1.664-1.665V197.99h2.23v3.668a1.664,1.664,0,1,0,3.329,0V197.99h1.212a1.765,1.765,0,0,0,1.761-1.777V185.45H123.971Z" transform="translate(-120.012 -176.433)" fill="#6cc57c"/>
    <path id="Path_162" data-name="Path 162" d="M444.024,179.141a1.6,1.6,0,0,0-1.163.477,1.58,1.58,0,0,0-.485,1.171v6.949a1.6,1.6,0,0,0,.485,1.18,1.587,1.587,0,0,0,1.163.485,1.655,1.655,0,0,0,1.664-1.665v-6.949a1.58,1.58,0,0,0-.485-1.171A1.621,1.621,0,0,0,444.024,179.141Z" transform="translate(-422.936 -170.431)" fill="#6cc57c"/>
  </g>
</svg>
