<svg id="app_store" xmlns="http://www.w3.org/2000/svg" width="23.941" height="29.189" viewBox="0 0 23.941 29.189">
  <g id="apple" transform="translate(0 0)">
    <path id="Path_157" data-name="Path 157" d="M53.96,140.422c-4.344-.025-7.938-8.893-7.938-13.409,0-7.377,5.534-8.992,7.667-8.992a8.822,8.822,0,0,1,2.893.711,6.466,6.466,0,0,0,1.652.474,5.14,5.14,0,0,0,1.185-.384,9.5,9.5,0,0,1,3.572-.863H63a7.321,7.321,0,0,1,6.126,3.094l.447.671-.643.485a5.411,5.411,0,0,0-2.595,4.462,5.036,5.036,0,0,0,2.81,4.656c.4.242.819.492.819,1.038,0,.357-2.846,8.014-6.979,8.014a5.613,5.613,0,0,1-2.357-.572,4.779,4.779,0,0,0-2.1-.505,5.4,5.4,0,0,0-1.661.449,8.135,8.135,0,0,1-2.881.672Z" transform="translate(-46.022 -111.233)" fill="#23233c"/>
    <path id="Path_158" data-name="Path 158" d="M260.638,0c.108,3.881-2.668,6.573-5.44,6.4C254.741,3.307,257.97,0,260.638,0Z" transform="translate(-243.232 0)" fill="#23233c"/>
  </g>
</svg>
